<svg xmlns="http://www.w3.org/2000/svg" height="52.757" width="60">
  <path fill="none" class="image-rect" d="M0 0h60v52.757H0z"/>
  <svg width="60" height="52.757" style="overflow:visible">
    <svg viewBox="0.526 0.003 98.945 87.002">
      <g fill="#9dff2d">
        <path d="m22.524 63.883 3.409-6.824a1.718 1.718 0 0 0-.076-1.663 1.704 1.704 0 0 0-1.45-.808H17.04l19.327-35.672 17.256 31.38c.304.546.877.884 1.498.884h7.77c.606 0 1.165-.317 1.469-.842.31-.524.317-1.166.02-1.69L37.843.878c-.6-1.082-2.38-1.082-2.98 0L.74 62.289a1.706 1.706 0 0 0 1.49 2.54H21a1.714 1.714 0 0 0 1.525-.945"/>
        <path d="M99.26 62.289 65.138.879c-.31-.552-.953-.863-1.532-.876a1.709 1.709 0 0 0-1.49.945l-8.529 17.057a1.695 1.695 0 0 0 0 1.525l3.409 6.824c.58 1.159 2.477 1.159 3.056 0l3.65-7.307 19.251 35.541H46.591c-.938 0-1.704.766-1.704 1.705v6.824c0 .938.766 1.704 1.704 1.704H97.77c.607 0 1.166-.317 1.47-.842.303-.517.31-1.159.02-1.69"/>
        <path d="M77.082 69.113a1.711 1.711 0 0 0-1.49-.876h-8.535a1.71 1.71 0 0 0-1.484.862 1.7 1.7 0 0 0 .021 1.718l3.567 5.948H30.783l17.285-29.85c.29-.496.31-1.103.048-1.614l-3.408-6.824a1.71 1.71 0 0 0-1.477-.945 1.676 1.676 0 0 0-1.532.862L28.08 62.227 14.43 84.403a1.697 1.697 0 0 0-.034 1.725 1.711 1.711 0 0 0 1.49.877H84.12c.608 0 1.167-.318 1.47-.842a1.73 1.73 0 0 0 .02-1.698l-8.528-15.352z"/>
      </g>
    </svg>
  </svg>
</svg>
